,
Brought to you by  http://www.scenetime.com/signup.php
 
 Hottest scene tracker on the net !!!   
 
No fake torrents from scenebalance 
shame on those who comment fake before downloading my torrents

    seed back for speed


 



...................................NFO:................................................. General
      Complete name : Chalet Girl 2011 R5 XViD - SCRN\Chalet Girl 2011 R5 XViD - SCRN.avi
      Format : AVI
      Format/Info : Audio Video Interleave
      Format profile : OpenDML
      File size : 1.71 GiB
      Duration : 1h 32mn
      Overall bit rate : 2 647 Kbps
      Writing application : AVI-Mux GUI 1.17.8.3, Feb 16 201019:42:50
   Video #0
      ID : 0
      Format : MPEG-4 Visual
      Format profile : AdvancedSimple@L5
      Format settings, BVOP : Yes
      Format settings, QPel : No
      Format settings, GMC : No warppoints
      Format settings, Matrix : Default (H.263)
      Muxing mode : Packed bitstream
      Codec ID : XVID
      Codec ID/Hint : XviD
      Duration : 1h 32mn
      Bit rate : 1 872 Kbps
      Width : 720 pixels
      Height : 384 pixels
      Display aspect ratio : 1.875
      Frame rate : 25.000 fps
      Resolution : 24 bits
      Colorimetry : 4:2:0
      Scan type : Progressive
      Bits/(Pixel*Frame) : 0.271
      Stream size : 1.21 GiB (71%)
      Writing library : XviD 1.3.0.dev55
   Audio #1
      ID : 1
      Format : AC-3
      Format/Info : Audio Coding 3
      Codec ID : 2000
      Duration : 1h 32mn
      Bit rate mode : Constant
      Bit rate : 448 Kbps
      Channel(s) : 6 channels
      Channel positions : Front: L C R, Surround: L R, LFE
      Sampling rate : 44.1 KHz
      Stream size : 297 MiB (17%)
      Alignment : Aligned on interleaves
      Interleave, duration : 70 ms (1.74 video frames)
      Interleave, preload duration : 209 ms
      
   Audio #2
      ID : 2
      Format : AC-3
      Format/Info : Audio Coding 3
      Codec ID : 2000
      Duration : 1h 32mn
      Bit rate mode : Constant
      Bit rate : 320 Kbps
      Channel(s) : 2 channels
      Channel positions : L R
      Sampling rate : 48.0 KHz
      Stream size : 212 MiB (12%)
      Alignment : Aligned on interleaves
      Interleave, duration : 64 ms (1.60 video frames)
      Interleave, preload duration : 192 ms